<mxfile host="app.diagrams.net" agent="Mozilla/5.0 (Macintosh; Intel Mac OS X 10_15_7) AppleWebKit/605.1.15 (KHTML, like Gecko) Version/17.1 Safari/605.1.15" version="28.1.2" pages="3">
  <diagram name="PoC" id="fSXS_aCnG2fy4KnrYW53">
    <mxGraphModel dx="940" dy="835" grid="1" gridSize="10" guides="1" tooltips="1" connect="1" arrows="1" fold="1" page="1" pageScale="1" pageWidth="1654" pageHeight="2336" math="0" shadow="0">
      <root>
        <mxCell id="vTrSM4ydlcIXEeYQLLQS-0" />
        <mxCell id="vTrSM4ydlcIXEeYQLLQS-1" parent="vTrSM4ydlcIXEeYQLLQS-0" />
        <mxCell id="vTrSM4ydlcIXEeYQLLQS-2" value="AWS Cloud" style="points=[[0,0],[0.25,0],[0.5,0],[0.75,0],[1,0],[1,0.25],[1,0.5],[1,0.75],[1,1],[0.75,1],[0.5,1],[0.25,1],[0,1],[0,0.75],[0,0.5],[0,0.25]];outlineConnect=0;gradientColor=none;html=1;whiteSpace=wrap;fontSize=12;fontStyle=0;container=1;pointerEvents=0;collapsible=0;recursiveResize=0;shape=mxgraph.aws4.group;grIcon=mxgraph.aws4.group_aws_cloud;strokeColor=#232F3E;fillColor=none;verticalAlign=top;align=left;spacingLeft=30;fontColor=#232F3E;dashed=0;" parent="vTrSM4ydlcIXEeYQLLQS-1" vertex="1">
          <mxGeometry x="270" y="160" width="890" height="680" as="geometry" />
        </mxCell>
        <mxCell id="vTrSM4ydlcIXEeYQLLQS-3" value="Region" style="points=[[0,0],[0.25,0],[0.5,0],[0.75,0],[1,0],[1,0.25],[1,0.5],[1,0.75],[1,1],[0.75,1],[0.5,1],[0.25,1],[0,1],[0,0.75],[0,0.5],[0,0.25]];outlineConnect=0;gradientColor=none;html=1;whiteSpace=wrap;fontSize=12;fontStyle=0;container=1;pointerEvents=0;collapsible=0;recursiveResize=0;shape=mxgraph.aws4.group;grIcon=mxgraph.aws4.group_region;strokeColor=#147EBA;fillColor=none;verticalAlign=top;align=left;spacingLeft=30;fontColor=#147EBA;dashed=1;" parent="vTrSM4ydlcIXEeYQLLQS-2" vertex="1">
          <mxGeometry x="10" y="30" width="870" height="640" as="geometry" />
        </mxCell>
        <mxCell id="vTrSM4ydlcIXEeYQLLQS-4" value="Default VPC" style="points=[[0,0],[0.25,0],[0.5,0],[0.75,0],[1,0],[1,0.25],[1,0.5],[1,0.75],[1,1],[0.75,1],[0.5,1],[0.25,1],[0,1],[0,0.75],[0,0.5],[0,0.25]];outlineConnect=0;gradientColor=none;html=1;whiteSpace=wrap;fontSize=12;fontStyle=0;container=1;pointerEvents=0;collapsible=0;recursiveResize=0;shape=mxgraph.aws4.group;grIcon=mxgraph.aws4.group_vpc;strokeColor=#248814;fillColor=none;verticalAlign=top;align=left;spacingLeft=30;fontColor=#AAB7B8;dashed=0;" parent="vTrSM4ydlcIXEeYQLLQS-3" vertex="1">
          <mxGeometry x="10" y="30" width="850" height="600" as="geometry" />
        </mxCell>
        <mxCell id="vTrSM4ydlcIXEeYQLLQS-5" value="Availability Zone" style="fillColor=none;strokeColor=#147EBA;dashed=1;verticalAlign=top;fontStyle=0;fontColor=#147EBA;align=center;" parent="vTrSM4ydlcIXEeYQLLQS-4" vertex="1">
          <mxGeometry x="150" y="20" width="330" height="243" as="geometry" />
        </mxCell>
        <mxCell id="vTrSM4ydlcIXEeYQLLQS-6" value="Public subnet" style="points=[[0,0],[0.25,0],[0.5,0],[0.75,0],[1,0],[1,0.25],[1,0.5],[1,0.75],[1,1],[0.75,1],[0.5,1],[0.25,1],[0,1],[0,0.75],[0,0.5],[0,0.25]];outlineConnect=0;gradientColor=none;html=1;whiteSpace=wrap;fontSize=12;fontStyle=0;container=0;pointerEvents=0;collapsible=0;recursiveResize=0;shape=mxgraph.aws4.group;grIcon=mxgraph.aws4.group_security_group;grStroke=0;strokeColor=#248814;fillColor=#E9F3E6;verticalAlign=top;align=left;spacingLeft=30;fontColor=#248814;dashed=0;" parent="vTrSM4ydlcIXEeYQLLQS-4" vertex="1">
          <mxGeometry x="160" y="50" width="310" height="178" as="geometry" />
        </mxCell>
        <mxCell id="vTrSM4ydlcIXEeYQLLQS-7" value="Amazon EC2&lt;br&gt;(Public &amp;nbsp;Node 1)" style="sketch=0;points=[[0,0,0],[0.25,0,0],[0.5,0,0],[0.75,0,0],[1,0,0],[0,1,0],[0.25,1,0],[0.5,1,0],[0.75,1,0],[1,1,0],[0,0.25,0],[0,0.5,0],[0,0.75,0],[1,0.25,0],[1,0.5,0],[1,0.75,0]];outlineConnect=0;fontColor=#232F3E;gradientColor=#F78E04;gradientDirection=north;fillColor=#D05C17;strokeColor=#ffffff;dashed=0;verticalLabelPosition=bottom;verticalAlign=top;align=center;html=1;fontSize=12;fontStyle=0;aspect=fixed;shape=mxgraph.aws4.resourceIcon;resIcon=mxgraph.aws4.ec2;" parent="vTrSM4ydlcIXEeYQLLQS-4" vertex="1">
          <mxGeometry x="300" y="140.5" width="40" height="40" as="geometry" />
        </mxCell>
        <mxCell id="E-Sm4mup6l4RDYe9SLTW-7" value="Availability Zone" style="fillColor=none;strokeColor=#147EBA;dashed=1;verticalAlign=top;fontStyle=0;fontColor=#147EBA;align=center;" vertex="1" parent="vTrSM4ydlcIXEeYQLLQS-4">
          <mxGeometry x="150" y="330" width="330" height="243" as="geometry" />
        </mxCell>
        <mxCell id="E-Sm4mup6l4RDYe9SLTW-8" value="Public subnet" style="points=[[0,0],[0.25,0],[0.5,0],[0.75,0],[1,0],[1,0.25],[1,0.5],[1,0.75],[1,1],[0.75,1],[0.5,1],[0.25,1],[0,1],[0,0.75],[0,0.5],[0,0.25]];outlineConnect=0;gradientColor=none;html=1;whiteSpace=wrap;fontSize=12;fontStyle=0;container=0;pointerEvents=0;collapsible=0;recursiveResize=0;shape=mxgraph.aws4.group;grIcon=mxgraph.aws4.group_security_group;grStroke=0;strokeColor=#248814;fillColor=#E9F3E6;verticalAlign=top;align=left;spacingLeft=30;fontColor=#248814;dashed=0;" vertex="1" parent="vTrSM4ydlcIXEeYQLLQS-4">
          <mxGeometry x="160" y="360" width="310" height="178" as="geometry" />
        </mxCell>
        <mxCell id="E-Sm4mup6l4RDYe9SLTW-5" value="Auto Scaling group" style="points=[[0,0],[0.25,0],[0.5,0],[0.75,0],[1,0],[1,0.25],[1,0.5],[1,0.75],[1,1],[0.75,1],[0.5,1],[0.25,1],[0,1],[0,0.75],[0,0.5],[0,0.25]];outlineConnect=0;gradientColor=none;html=1;whiteSpace=wrap;fontSize=12;fontStyle=0;container=1;pointerEvents=0;collapsible=0;recursiveResize=0;shape=mxgraph.aws4.groupCenter;grIcon=mxgraph.aws4.group_auto_scaling_group;grStroke=1;strokeColor=#D86613;fillColor=none;verticalAlign=top;align=center;fontColor=#D86613;dashed=1;spacingTop=25;" vertex="1" parent="vTrSM4ydlcIXEeYQLLQS-4">
          <mxGeometry x="190" y="80" width="250" height="450" as="geometry" />
        </mxCell>
        <mxCell id="E-Sm4mup6l4RDYe9SLTW-9" value="Amazon EC2&lt;br&gt;(Public &amp;nbsp;Node 2)" style="sketch=0;points=[[0,0,0],[0.25,0,0],[0.5,0,0],[0.75,0,0],[1,0,0],[0,1,0],[0.25,1,0],[0.5,1,0],[0.75,1,0],[1,1,0],[0,0.25,0],[0,0.5,0],[0,0.75,0],[1,0.25,0],[1,0.5,0],[1,0.75,0]];outlineConnect=0;fontColor=#232F3E;gradientColor=#F78E04;gradientDirection=north;fillColor=#D05C17;strokeColor=#ffffff;dashed=0;verticalLabelPosition=bottom;verticalAlign=top;align=center;html=1;fontSize=12;fontStyle=0;aspect=fixed;shape=mxgraph.aws4.resourceIcon;resIcon=mxgraph.aws4.ec2;" vertex="1" parent="vTrSM4ydlcIXEeYQLLQS-4">
          <mxGeometry x="300" y="450.5" width="40" height="40" as="geometry" />
        </mxCell>
        <mxCell id="E-Sm4mup6l4RDYe9SLTW-11" value="" style="sketch=0;outlineConnect=0;fontColor=#232F3E;gradientColor=none;fillColor=#8C4FFF;strokeColor=none;dashed=0;verticalLabelPosition=bottom;verticalAlign=top;align=center;html=1;fontSize=12;fontStyle=0;aspect=fixed;pointerEvents=1;shape=mxgraph.aws4.internet_gateway;" vertex="1" parent="vTrSM4ydlcIXEeYQLLQS-4">
          <mxGeometry x="20" y="263" width="78" height="78" as="geometry" />
        </mxCell>
        <mxCell id="E-Sm4mup6l4RDYe9SLTW-16" value="" style="edgeStyle=orthogonalEdgeStyle;rounded=0;orthogonalLoop=1;jettySize=auto;html=1;entryX=1;entryY=0.5;entryDx=0;entryDy=0;entryPerimeter=0;" edge="1" parent="vTrSM4ydlcIXEeYQLLQS-4" source="E-Sm4mup6l4RDYe9SLTW-13" target="E-Sm4mup6l4RDYe9SLTW-9">
          <mxGeometry relative="1" as="geometry" />
        </mxCell>
        <mxCell id="E-Sm4mup6l4RDYe9SLTW-13" value="" style="sketch=0;outlineConnect=0;fontColor=#232F3E;gradientColor=none;fillColor=#8C4FFF;strokeColor=none;dashed=0;verticalLabelPosition=bottom;verticalAlign=top;align=center;html=1;fontSize=12;fontStyle=0;aspect=fixed;pointerEvents=1;shape=mxgraph.aws4.application_load_balancer;" vertex="1" parent="vTrSM4ydlcIXEeYQLLQS-4">
          <mxGeometry x="550" y="261" width="78" height="78" as="geometry" />
        </mxCell>
        <mxCell id="E-Sm4mup6l4RDYe9SLTW-15" style="edgeStyle=orthogonalEdgeStyle;rounded=0;orthogonalLoop=1;jettySize=auto;html=1;exitX=0;exitY=0.5;exitDx=0;exitDy=0;" edge="1" parent="vTrSM4ydlcIXEeYQLLQS-4" source="vTrSM4ydlcIXEeYQLLQS-20" target="E-Sm4mup6l4RDYe9SLTW-13">
          <mxGeometry relative="1" as="geometry" />
        </mxCell>
        <mxCell id="vTrSM4ydlcIXEeYQLLQS-20" value="Applications" style="rounded=1;whiteSpace=wrap;html=1;" parent="vTrSM4ydlcIXEeYQLLQS-4" vertex="1">
          <mxGeometry x="720" y="270" width="120" height="60" as="geometry" />
        </mxCell>
        <mxCell id="E-Sm4mup6l4RDYe9SLTW-19" style="edgeStyle=orthogonalEdgeStyle;rounded=0;orthogonalLoop=1;jettySize=auto;html=1;entryX=1;entryY=0.5;entryDx=0;entryDy=0;entryPerimeter=0;" edge="1" parent="vTrSM4ydlcIXEeYQLLQS-4" source="E-Sm4mup6l4RDYe9SLTW-13" target="vTrSM4ydlcIXEeYQLLQS-7">
          <mxGeometry relative="1" as="geometry" />
        </mxCell>
        <mxCell id="E-Sm4mup6l4RDYe9SLTW-20" style="edgeStyle=orthogonalEdgeStyle;rounded=0;orthogonalLoop=1;jettySize=auto;html=1;entryX=0;entryY=0.5;entryDx=0;entryDy=0;entryPerimeter=0;" edge="1" parent="vTrSM4ydlcIXEeYQLLQS-4" source="E-Sm4mup6l4RDYe9SLTW-11" target="vTrSM4ydlcIXEeYQLLQS-7">
          <mxGeometry relative="1" as="geometry" />
        </mxCell>
        <mxCell id="E-Sm4mup6l4RDYe9SLTW-21" style="edgeStyle=orthogonalEdgeStyle;rounded=0;orthogonalLoop=1;jettySize=auto;html=1;entryX=0;entryY=0.5;entryDx=0;entryDy=0;entryPerimeter=0;" edge="1" parent="vTrSM4ydlcIXEeYQLLQS-4" source="E-Sm4mup6l4RDYe9SLTW-11" target="E-Sm4mup6l4RDYe9SLTW-9">
          <mxGeometry relative="1" as="geometry" />
        </mxCell>
        <mxCell id="E-Sm4mup6l4RDYe9SLTW-25" value="2" style="ellipse;whiteSpace=wrap;html=1;aspect=fixed;rotation=0;strokeColor=#d79b00;gradientDirection=east;fillColor=#FF8000;rounded=0;pointerEvents=0;fontFamily=Helvetica;fontSize=16;spacingTop=4;spacingBottom=4;spacingLeft=4;spacingRight=4;points=[];fontStyle=1;fontColor=#FFFFFF;" vertex="1" parent="vTrSM4ydlcIXEeYQLLQS-4">
          <mxGeometry x="660" y="263" width="30" height="30" as="geometry" />
        </mxCell>
        <mxCell id="E-Sm4mup6l4RDYe9SLTW-12" style="edgeStyle=orthogonalEdgeStyle;rounded=0;orthogonalLoop=1;jettySize=auto;html=1;exitX=0.875;exitY=0.5;exitDx=0;exitDy=0;exitPerimeter=0;" edge="1" parent="vTrSM4ydlcIXEeYQLLQS-1" source="vTrSM4ydlcIXEeYQLLQS-24" target="E-Sm4mup6l4RDYe9SLTW-11">
          <mxGeometry relative="1" as="geometry" />
        </mxCell>
        <mxCell id="vTrSM4ydlcIXEeYQLLQS-24" value="Vechain&lt;br&gt;Network" style="ellipse;shape=cloud;whiteSpace=wrap;html=1;" parent="vTrSM4ydlcIXEeYQLLQS-1" vertex="1">
          <mxGeometry x="40" y="482" width="120" height="80" as="geometry" />
        </mxCell>
        <mxCell id="E-Sm4mup6l4RDYe9SLTW-23" style="edgeStyle=orthogonalEdgeStyle;rounded=0;orthogonalLoop=1;jettySize=auto;html=1;exitX=0.875;exitY=0.5;exitDx=0;exitDy=0;exitPerimeter=0;" edge="1" parent="vTrSM4ydlcIXEeYQLLQS-1" source="E-Sm4mup6l4RDYe9SLTW-22" target="E-Sm4mup6l4RDYe9SLTW-11">
          <mxGeometry relative="1" as="geometry">
            <Array as="points">
              <mxPoint x="175" y="522" />
            </Array>
          </mxGeometry>
        </mxCell>
        <mxCell id="E-Sm4mup6l4RDYe9SLTW-22" value="Vechain labs snapshots" style="ellipse;shape=cloud;whiteSpace=wrap;html=1;" vertex="1" parent="vTrSM4ydlcIXEeYQLLQS-1">
          <mxGeometry x="70" y="561" width="120" height="80" as="geometry" />
        </mxCell>
        <mxCell id="E-Sm4mup6l4RDYe9SLTW-24" value="1" style="ellipse;whiteSpace=wrap;html=1;aspect=fixed;rotation=0;strokeColor=#d79b00;gradientDirection=east;fillColor=#FF8000;rounded=0;pointerEvents=0;fontFamily=Helvetica;fontSize=16;spacingTop=4;spacingBottom=4;spacingLeft=4;spacingRight=4;points=[];fontStyle=1;fontColor=#FFFFFF;" vertex="1" parent="vTrSM4ydlcIXEeYQLLQS-1">
          <mxGeometry x="190" y="600" width="30" height="30" as="geometry" />
        </mxCell>
      </root>
    </mxGraphModel>
  </diagram>
  <diagram name="Small Production" id="vZe18tGGqd19In-fdr_9">
    <mxGraphModel dx="1306" dy="894" grid="1" gridSize="10" guides="1" tooltips="1" connect="1" arrows="1" fold="1" page="1" pageScale="1" pageWidth="1654" pageHeight="2336" math="0" shadow="0">
      <root>
        <mxCell id="0" />
        <mxCell id="1" parent="0" />
        <mxCell id="Ge5zIYiI3NynV6rTXDof-1" value="AWS Cloud" style="points=[[0,0],[0.25,0],[0.5,0],[0.75,0],[1,0],[1,0.25],[1,0.5],[1,0.75],[1,1],[0.75,1],[0.5,1],[0.25,1],[0,1],[0,0.75],[0,0.5],[0,0.25]];outlineConnect=0;gradientColor=none;html=1;whiteSpace=wrap;fontSize=12;fontStyle=0;container=1;pointerEvents=0;collapsible=0;recursiveResize=0;shape=mxgraph.aws4.group;grIcon=mxgraph.aws4.group_aws_cloud;strokeColor=#232F3E;fillColor=none;verticalAlign=top;align=left;spacingLeft=30;fontColor=#232F3E;dashed=0;" parent="1" vertex="1">
          <mxGeometry x="270" y="230" width="930" height="630" as="geometry" />
        </mxCell>
        <mxCell id="Ge5zIYiI3NynV6rTXDof-2" value="Region" style="points=[[0,0],[0.25,0],[0.5,0],[0.75,0],[1,0],[1,0.25],[1,0.5],[1,0.75],[1,1],[0.75,1],[0.5,1],[0.25,1],[0,1],[0,0.75],[0,0.5],[0,0.25]];outlineConnect=0;gradientColor=none;html=1;whiteSpace=wrap;fontSize=12;fontStyle=0;container=1;pointerEvents=0;collapsible=0;recursiveResize=0;shape=mxgraph.aws4.group;grIcon=mxgraph.aws4.group_region;strokeColor=#147EBA;fillColor=none;verticalAlign=top;align=left;spacingLeft=30;fontColor=#147EBA;dashed=1;" parent="Ge5zIYiI3NynV6rTXDof-1" vertex="1">
          <mxGeometry x="10" y="40" width="910" height="580" as="geometry" />
        </mxCell>
        <mxCell id="CVayiRELidXFEp9TWZML-1" value="Default VPC" style="points=[[0,0],[0.25,0],[0.5,0],[0.75,0],[1,0],[1,0.25],[1,0.5],[1,0.75],[1,1],[0.75,1],[0.5,1],[0.25,1],[0,1],[0,0.75],[0,0.5],[0,0.25]];outlineConnect=0;gradientColor=none;html=1;whiteSpace=wrap;fontSize=12;fontStyle=0;container=1;pointerEvents=0;collapsible=0;recursiveResize=0;shape=mxgraph.aws4.group;grIcon=mxgraph.aws4.group_vpc;strokeColor=#248814;fillColor=none;verticalAlign=top;align=left;spacingLeft=30;fontColor=#AAB7B8;dashed=0;" parent="Ge5zIYiI3NynV6rTXDof-2" vertex="1">
          <mxGeometry x="10" y="30" width="890" height="540" as="geometry" />
        </mxCell>
        <mxCell id="Ge5zIYiI3NynV6rTXDof-4" value="Availability Zone" style="fillColor=none;strokeColor=#147EBA;dashed=1;verticalAlign=top;fontStyle=0;fontColor=#147EBA;" parent="CVayiRELidXFEp9TWZML-1" vertex="1">
          <mxGeometry x="120" y="20" width="390" height="240" as="geometry" />
        </mxCell>
        <mxCell id="CVayiRELidXFEp9TWZML-2" value="Public subnet" style="points=[[0,0],[0.25,0],[0.5,0],[0.75,0],[1,0],[1,0.25],[1,0.5],[1,0.75],[1,1],[0.75,1],[0.5,1],[0.25,1],[0,1],[0,0.75],[0,0.5],[0,0.25]];outlineConnect=0;gradientColor=none;html=1;whiteSpace=wrap;fontSize=12;fontStyle=0;container=0;pointerEvents=0;collapsible=0;recursiveResize=0;shape=mxgraph.aws4.group;grIcon=mxgraph.aws4.group_security_group;grStroke=0;strokeColor=#248814;fillColor=#E9F3E6;verticalAlign=top;align=left;spacingLeft=30;fontColor=#248814;dashed=0;" parent="CVayiRELidXFEp9TWZML-1" vertex="1">
          <mxGeometry x="130" y="45" width="370" height="205" as="geometry" />
        </mxCell>
        <mxCell id="CVayiRELidXFEp9TWZML-5" value="Amazon EC2&lt;br&gt;(RPC Node 1)" style="sketch=0;points=[[0,0,0],[0.25,0,0],[0.5,0,0],[0.75,0,0],[1,0,0],[0,1,0],[0.25,1,0],[0.5,1,0],[0.75,1,0],[1,1,0],[0,0.25,0],[0,0.5,0],[0,0.75,0],[1,0.25,0],[1,0.5,0],[1,0.75,0]];outlineConnect=0;fontColor=#232F3E;gradientColor=#F78E04;gradientDirection=north;fillColor=#D05C17;strokeColor=#ffffff;dashed=0;verticalLabelPosition=bottom;verticalAlign=top;align=center;html=1;fontSize=12;fontStyle=0;aspect=fixed;shape=mxgraph.aws4.resourceIcon;resIcon=mxgraph.aws4.ec2;" parent="CVayiRELidXFEp9TWZML-1" vertex="1">
          <mxGeometry x="176" y="130" width="78" height="78" as="geometry" />
        </mxCell>
        <mxCell id="CVayiRELidXFEp9TWZML-9" value="Availability Zone" style="fillColor=none;strokeColor=#147EBA;dashed=1;verticalAlign=top;fontStyle=0;fontColor=#147EBA;" parent="CVayiRELidXFEp9TWZML-1" vertex="1">
          <mxGeometry x="120" y="300" width="390" height="200" as="geometry" />
        </mxCell>
        <mxCell id="CVayiRELidXFEp9TWZML-10" value="Public subnet" style="points=[[0,0],[0.25,0],[0.5,0],[0.75,0],[1,0],[1,0.25],[1,0.5],[1,0.75],[1,1],[0.75,1],[0.5,1],[0.25,1],[0,1],[0,0.75],[0,0.5],[0,0.25]];outlineConnect=0;gradientColor=none;html=1;whiteSpace=wrap;fontSize=12;fontStyle=0;container=1;pointerEvents=0;collapsible=0;recursiveResize=0;shape=mxgraph.aws4.group;grIcon=mxgraph.aws4.group_security_group;grStroke=0;strokeColor=#248814;fillColor=#E9F3E6;verticalAlign=top;align=left;spacingLeft=30;fontColor=#248814;dashed=0;" parent="CVayiRELidXFEp9TWZML-1" vertex="1">
          <mxGeometry x="130" y="320" width="370" height="170" as="geometry" />
        </mxCell>
        <mxCell id="CVayiRELidXFEp9TWZML-12" value="Amazon EC2&lt;br&gt;(RPC Node 2)" style="sketch=0;points=[[0,0,0],[0.25,0,0],[0.5,0,0],[0.75,0,0],[1,0,0],[0,1,0],[0.25,1,0],[0.5,1,0],[0.75,1,0],[1,1,0],[0,0.25,0],[0,0.5,0],[0,0.75,0],[1,0.25,0],[1,0.5,0],[1,0.75,0]];outlineConnect=0;fontColor=#232F3E;gradientColor=#F78E04;gradientDirection=north;fillColor=#D05C17;strokeColor=#ffffff;dashed=0;verticalLabelPosition=bottom;verticalAlign=top;align=center;html=1;fontSize=12;fontStyle=0;aspect=fixed;shape=mxgraph.aws4.resourceIcon;resIcon=mxgraph.aws4.ec2;" parent="CVayiRELidXFEp9TWZML-1" vertex="1">
          <mxGeometry x="180" y="360" width="78" height="78" as="geometry" />
        </mxCell>
        <mxCell id="CVayiRELidXFEp9TWZML-8" value="Auto Scaling group" style="points=[[0,0],[0.25,0],[0.5,0],[0.75,0],[1,0],[1,0.25],[1,0.5],[1,0.75],[1,1],[0.75,1],[0.5,1],[0.25,1],[0,1],[0,0.75],[0,0.5],[0,0.25]];outlineConnect=0;gradientColor=none;html=1;whiteSpace=wrap;fontSize=12;fontStyle=0;container=0;pointerEvents=0;collapsible=0;recursiveResize=0;shape=mxgraph.aws4.groupCenter;grIcon=mxgraph.aws4.group_auto_scaling_group;grStroke=1;strokeColor=#D86613;fillColor=none;verticalAlign=top;align=center;fontColor=#D86613;dashed=1;spacingTop=25;" parent="CVayiRELidXFEp9TWZML-1" vertex="1">
          <mxGeometry x="140" y="80" width="150" height="400" as="geometry" />
        </mxCell>
        <mxCell id="CVayiRELidXFEp9TWZML-47" value="" style="edgeStyle=orthogonalEdgeStyle;rounded=0;orthogonalLoop=1;jettySize=auto;html=1;fontSize=18;fontColor=#FFFFFF;entryX=1;entryY=0.5;entryDx=0;entryDy=0;entryPerimeter=0;" parent="CVayiRELidXFEp9TWZML-1" source="CVayiRELidXFEp9TWZML-34" target="CVayiRELidXFEp9TWZML-12" edge="1">
          <mxGeometry relative="1" as="geometry">
            <mxPoint x="380" y="169" as="targetPoint" />
            <Array as="points">
              <mxPoint x="330" y="169" />
              <mxPoint x="330" y="399" />
            </Array>
          </mxGeometry>
        </mxCell>
        <mxCell id="CVayiRELidXFEp9TWZML-49" value="" style="edgeStyle=orthogonalEdgeStyle;rounded=0;orthogonalLoop=1;jettySize=auto;html=1;fontSize=18;fontColor=#FFFFFF;" parent="CVayiRELidXFEp9TWZML-1" source="CVayiRELidXFEp9TWZML-34" target="CVayiRELidXFEp9TWZML-5" edge="1">
          <mxGeometry relative="1" as="geometry">
            <mxPoint x="499" y="49.99911365650769" as="targetPoint" />
          </mxGeometry>
        </mxCell>
        <mxCell id="CVayiRELidXFEp9TWZML-34" value="Application Load&lt;br&gt;Balancer&amp;nbsp;" style="sketch=0;outlineConnect=0;fontColor=#232F3E;gradientColor=none;fillColor=#4D27AA;strokeColor=none;dashed=0;verticalLabelPosition=bottom;verticalAlign=top;align=center;html=1;fontSize=12;fontStyle=0;aspect=fixed;pointerEvents=1;shape=mxgraph.aws4.application_load_balancer;" parent="CVayiRELidXFEp9TWZML-1" vertex="1">
          <mxGeometry x="590" y="130" width="78" height="78" as="geometry" />
        </mxCell>
        <mxCell id="CVayiRELidXFEp9TWZML-51" value="&lt;b&gt;&lt;font color=&quot;#ffffff&quot; style=&quot;font-size: 18px;&quot;&gt;3&lt;/font&gt;&lt;/b&gt;" style="ellipse;whiteSpace=wrap;html=1;aspect=fixed;fillColor=#FF9933;strokeColor=none;" parent="CVayiRELidXFEp9TWZML-1" vertex="1">
          <mxGeometry x="430" y="230" width="40" height="40" as="geometry" />
        </mxCell>
        <mxCell id="XfCvnqFWfbkaWjJL51KS-6" value="" style="edgeStyle=orthogonalEdgeStyle;rounded=0;orthogonalLoop=1;jettySize=auto;html=1;entryX=0;entryY=0.5;entryDx=0;entryDy=0;entryPerimeter=0;" parent="CVayiRELidXFEp9TWZML-1" source="XfCvnqFWfbkaWjJL51KS-4" target="CVayiRELidXFEp9TWZML-5" edge="1">
          <mxGeometry relative="1" as="geometry">
            <Array as="points">
              <mxPoint x="160" y="281" />
              <mxPoint x="160" y="169" />
            </Array>
          </mxGeometry>
        </mxCell>
        <mxCell id="XfCvnqFWfbkaWjJL51KS-7" value="" style="edgeStyle=orthogonalEdgeStyle;rounded=0;orthogonalLoop=1;jettySize=auto;html=1;entryX=0;entryY=0.5;entryDx=0;entryDy=0;entryPerimeter=0;" parent="CVayiRELidXFEp9TWZML-1" source="XfCvnqFWfbkaWjJL51KS-4" target="CVayiRELidXFEp9TWZML-12" edge="1">
          <mxGeometry relative="1" as="geometry">
            <Array as="points">
              <mxPoint x="160" y="281" />
              <mxPoint x="160" y="399" />
            </Array>
          </mxGeometry>
        </mxCell>
        <mxCell id="XfCvnqFWfbkaWjJL51KS-8" value="" style="edgeStyle=orthogonalEdgeStyle;rounded=0;orthogonalLoop=1;jettySize=auto;html=1;entryX=0;entryY=0.5;entryDx=0;entryDy=0;entryPerimeter=0;" parent="CVayiRELidXFEp9TWZML-1" source="XfCvnqFWfbkaWjJL51KS-4" target="CVayiRELidXFEp9TWZML-7" edge="1">
          <mxGeometry relative="1" as="geometry">
            <Array as="points">
              <mxPoint x="59" y="520" />
              <mxPoint x="380" y="520" />
              <mxPoint x="380" y="400" />
            </Array>
          </mxGeometry>
        </mxCell>
        <mxCell id="XfCvnqFWfbkaWjJL51KS-4" value="Internet Gateway" style="sketch=0;outlineConnect=0;fontColor=#232F3E;gradientColor=none;fillColor=#4D27AA;strokeColor=none;dashed=0;verticalLabelPosition=bottom;verticalAlign=top;align=center;html=1;fontSize=12;fontStyle=0;aspect=fixed;pointerEvents=1;shape=mxgraph.aws4.internet_gateway;" parent="CVayiRELidXFEp9TWZML-1" vertex="1">
          <mxGeometry x="20" y="242" width="78" height="78" as="geometry" />
        </mxCell>
        <mxCell id="CVayiRELidXFEp9TWZML-7" value="Amazon EC2&lt;br&gt;(Sync Node)" style="sketch=0;points=[[0,0,0],[0.25,0,0],[0.5,0,0],[0.75,0,0],[1,0,0],[0,1,0],[0.25,1,0],[0.5,1,0],[0.75,1,0],[1,1,0],[0,0.25,0],[0,0.5,0],[0,0.75,0],[1,0.25,0],[1,0.5,0],[1,0.75,0]];outlineConnect=0;fontColor=#232F3E;gradientColor=#F78E04;gradientDirection=north;fillColor=#D05C17;strokeColor=#ffffff;dashed=0;verticalLabelPosition=bottom;verticalAlign=top;align=center;html=1;fontSize=12;fontStyle=0;aspect=fixed;shape=mxgraph.aws4.resourceIcon;resIcon=mxgraph.aws4.ec2;" parent="CVayiRELidXFEp9TWZML-1" vertex="1">
          <mxGeometry x="400" y="360" width="78" height="78" as="geometry" />
        </mxCell>
        <mxCell id="CVayiRELidXFEp9TWZML-50" value="&lt;b&gt;&lt;font color=&quot;#ffffff&quot; style=&quot;font-size: 18px;&quot;&gt;2&lt;/font&gt;&lt;/b&gt;" style="ellipse;whiteSpace=wrap;html=1;aspect=fixed;fillColor=#FF9933;strokeColor=none;" parent="CVayiRELidXFEp9TWZML-1" vertex="1">
          <mxGeometry x="520" y="349" width="40" height="40" as="geometry" />
        </mxCell>
        <mxCell id="XfCvnqFWfbkaWjJL51KS-10" style="edgeStyle=orthogonalEdgeStyle;rounded=0;orthogonalLoop=1;jettySize=auto;html=1;entryX=1;entryY=0.75;entryDx=0;entryDy=0;entryPerimeter=0;dashed=1;strokeWidth=2;" parent="CVayiRELidXFEp9TWZML-1" source="mgMY13KYTIkaxyDkHCI5-1" target="CVayiRELidXFEp9TWZML-5" edge="1">
          <mxGeometry relative="1" as="geometry">
            <Array as="points">
              <mxPoint x="370" y="281" />
              <mxPoint x="370" y="189" />
            </Array>
          </mxGeometry>
        </mxCell>
        <mxCell id="XfCvnqFWfbkaWjJL51KS-1" value="Amazon S3 Bucket&lt;br&gt;(Node Data Snapshot)" style="sketch=0;points=[[0,0,0],[0.25,0,0],[0.5,0,0],[0.75,0,0],[1,0,0],[0,1,0],[0.25,1,0],[0.5,1,0],[0.75,1,0],[1,1,0],[0,0.25,0],[0,0.5,0],[0,0.75,0],[1,0.25,0],[1,0.5,0],[1,0.75,0]];outlineConnect=0;fontColor=#232F3E;gradientColor=#60A337;gradientDirection=north;fillColor=#277116;strokeColor=#ffffff;dashed=0;verticalLabelPosition=bottom;verticalAlign=top;align=center;html=1;fontSize=12;fontStyle=0;aspect=fixed;shape=mxgraph.aws4.resourceIcon;resIcon=mxgraph.aws4.s3;" parent="CVayiRELidXFEp9TWZML-1" vertex="1">
          <mxGeometry x="770" y="361" width="78" height="78" as="geometry" />
        </mxCell>
        <mxCell id="XfCvnqFWfbkaWjJL51KS-2" style="edgeStyle=orthogonalEdgeStyle;rounded=0;orthogonalLoop=1;jettySize=auto;html=1;exitX=1;exitY=0.5;exitDx=0;exitDy=0;exitPerimeter=0;dashed=1;strokeWidth=2;" parent="CVayiRELidXFEp9TWZML-1" source="CVayiRELidXFEp9TWZML-7" target="mgMY13KYTIkaxyDkHCI5-1" edge="1">
          <mxGeometry relative="1" as="geometry" />
        </mxCell>
        <mxCell id="CVayiRELidXFEp9TWZML-33" value="&lt;b&gt;&lt;font color=&quot;#ffffff&quot; style=&quot;font-size: 18px;&quot;&gt;1&lt;/font&gt;&lt;/b&gt;" style="ellipse;whiteSpace=wrap;html=1;aspect=fixed;fillColor=#FF9933;strokeColor=none;" parent="CVayiRELidXFEp9TWZML-1" vertex="1">
          <mxGeometry x="39" y="190" width="40" height="40" as="geometry" />
        </mxCell>
        <mxCell id="CVayiRELidXFEp9TWZML-25" value="Applications" style="rounded=1;whiteSpace=wrap;html=1;" parent="CVayiRELidXFEp9TWZML-1" vertex="1">
          <mxGeometry x="760" y="80" width="120" height="60" as="geometry" />
        </mxCell>
        <mxCell id="CVayiRELidXFEp9TWZML-36" value="Smart Contract&lt;br&gt;Development Tools" style="rounded=1;whiteSpace=wrap;html=1;" parent="CVayiRELidXFEp9TWZML-1" vertex="1">
          <mxGeometry x="760" y="190" width="120" height="60" as="geometry" />
        </mxCell>
        <mxCell id="CVayiRELidXFEp9TWZML-52" value="&lt;b&gt;&lt;font color=&quot;#ffffff&quot; style=&quot;font-size: 18px;&quot;&gt;4&lt;/font&gt;&lt;/b&gt;" style="ellipse;whiteSpace=wrap;html=1;aspect=fixed;fillColor=#FF9933;strokeColor=none;" parent="CVayiRELidXFEp9TWZML-1" vertex="1">
          <mxGeometry x="690" y="120" width="40" height="40" as="geometry" />
        </mxCell>
        <mxCell id="CVayiRELidXFEp9TWZML-35" style="edgeStyle=orthogonalEdgeStyle;rounded=0;orthogonalLoop=1;jettySize=auto;html=1;exitX=0;exitY=0.5;exitDx=0;exitDy=0;fontSize=18;fontColor=#FFFFFF;" parent="CVayiRELidXFEp9TWZML-1" source="CVayiRELidXFEp9TWZML-25" target="CVayiRELidXFEp9TWZML-34" edge="1">
          <mxGeometry relative="1" as="geometry">
            <Array as="points">
              <mxPoint x="740" y="110" />
              <mxPoint x="740" y="169" />
            </Array>
          </mxGeometry>
        </mxCell>
        <mxCell id="CVayiRELidXFEp9TWZML-37" style="edgeStyle=orthogonalEdgeStyle;rounded=0;orthogonalLoop=1;jettySize=auto;html=1;exitX=0;exitY=0.5;exitDx=0;exitDy=0;fontSize=18;fontColor=#FFFFFF;" parent="CVayiRELidXFEp9TWZML-1" source="CVayiRELidXFEp9TWZML-36" target="CVayiRELidXFEp9TWZML-34" edge="1">
          <mxGeometry relative="1" as="geometry">
            <Array as="points">
              <mxPoint x="740" y="220" />
              <mxPoint x="740" y="169" />
            </Array>
          </mxGeometry>
        </mxCell>
        <mxCell id="mgMY13KYTIkaxyDkHCI5-4" value="" style="edgeStyle=orthogonalEdgeStyle;rounded=0;orthogonalLoop=1;jettySize=auto;html=1;entryX=1;entryY=0.25;entryDx=0;entryDy=0;entryPerimeter=0;dashed=1;strokeWidth=2;" edge="1" parent="CVayiRELidXFEp9TWZML-1" source="mgMY13KYTIkaxyDkHCI5-1" target="CVayiRELidXFEp9TWZML-12">
          <mxGeometry relative="1" as="geometry">
            <Array as="points">
              <mxPoint x="638" y="280" />
              <mxPoint x="370" y="280" />
              <mxPoint x="370" y="380" />
            </Array>
          </mxGeometry>
        </mxCell>
        <mxCell id="mgMY13KYTIkaxyDkHCI5-5" value="" style="edgeStyle=orthogonalEdgeStyle;rounded=0;orthogonalLoop=1;jettySize=auto;html=1;dashed=1;strokeWidth=2;startArrow=classic;startFill=1;" edge="1" parent="CVayiRELidXFEp9TWZML-1" source="mgMY13KYTIkaxyDkHCI5-1" target="XfCvnqFWfbkaWjJL51KS-1">
          <mxGeometry relative="1" as="geometry" />
        </mxCell>
        <mxCell id="mgMY13KYTIkaxyDkHCI5-1" value="" style="sketch=0;outlineConnect=0;fontColor=#232F3E;gradientColor=none;fillColor=#4D27AA;strokeColor=none;dashed=0;verticalLabelPosition=bottom;verticalAlign=top;align=center;html=1;fontSize=12;fontStyle=0;aspect=fixed;pointerEvents=1;shape=mxgraph.aws4.endpoint;" vertex="1" parent="CVayiRELidXFEp9TWZML-1">
          <mxGeometry x="608" y="369" width="60" height="60" as="geometry" />
        </mxCell>
        <mxCell id="mgMY13KYTIkaxyDkHCI5-3" value="VPC Endpoint" style="text;html=1;strokeColor=none;fillColor=none;align=center;verticalAlign=middle;whiteSpace=wrap;rounded=0;" vertex="1" parent="CVayiRELidXFEp9TWZML-1">
          <mxGeometry x="608" y="438" width="60" height="30" as="geometry" />
        </mxCell>
        <mxCell id="XfCvnqFWfbkaWjJL51KS-5" style="edgeStyle=orthogonalEdgeStyle;rounded=0;orthogonalLoop=1;jettySize=auto;html=1;exitX=0.875;exitY=0.5;exitDx=0;exitDy=0;exitPerimeter=0;" parent="1" source="CVayiRELidXFEp9TWZML-26" target="XfCvnqFWfbkaWjJL51KS-4" edge="1">
          <mxGeometry relative="1" as="geometry" />
        </mxCell>
        <mxCell id="CVayiRELidXFEp9TWZML-26" value="Ethereum&lt;br&gt;Network" style="ellipse;shape=cloud;whiteSpace=wrap;html=1;" parent="1" vertex="1">
          <mxGeometry x="70" y="520.5" width="160" height="121" as="geometry" />
        </mxCell>
      </root>
    </mxGraphModel>
  </diagram>
  <diagram name="Large Production" id="iTve4dh5wfLRinsIEfJ3">
    <mxGraphModel dx="1306" dy="894" grid="1" gridSize="10" guides="1" tooltips="1" connect="1" arrows="1" fold="1" page="1" pageScale="1" pageWidth="1654" pageHeight="2336" math="0" shadow="0">
      <root>
        <mxCell id="kPjp37Ba6q5vGIwWxMdt-0" />
        <mxCell id="kPjp37Ba6q5vGIwWxMdt-1" parent="kPjp37Ba6q5vGIwWxMdt-0" />
        <mxCell id="kPjp37Ba6q5vGIwWxMdt-9" value="Public subnet" style="points=[[0,0],[0.25,0],[0.5,0],[0.75,0],[1,0],[1,0.25],[1,0.5],[1,0.75],[1,1],[0.75,1],[0.5,1],[0.25,1],[0,1],[0,0.75],[0,0.5],[0,0.25]];outlineConnect=0;gradientColor=none;html=1;whiteSpace=wrap;fontSize=12;fontStyle=0;container=1;pointerEvents=0;collapsible=0;recursiveResize=0;shape=mxgraph.aws4.group;grIcon=mxgraph.aws4.group_security_group;grStroke=0;strokeColor=#248814;fillColor=#E9F3E6;verticalAlign=top;align=left;spacingLeft=30;fontColor=#248814;dashed=0;" parent="kPjp37Ba6q5vGIwWxMdt-1" vertex="1">
          <mxGeometry x="160" y="640" width="831" height="170" as="geometry" />
        </mxCell>
        <mxCell id="kPjp37Ba6q5vGIwWxMdt-10" value="Amazon EC2&lt;br&gt;(Sync Node)" style="sketch=0;points=[[0,0,0],[0.25,0,0],[0.5,0,0],[0.75,0,0],[1,0,0],[0,1,0],[0.25,1,0],[0.5,1,0],[0.75,1,0],[1,1,0],[0,0.25,0],[0,0.5,0],[0,0.75,0],[1,0.25,0],[1,0.5,0],[1,0.75,0]];outlineConnect=0;fontColor=#232F3E;gradientColor=#F78E04;gradientDirection=north;fillColor=#D05C17;strokeColor=#ffffff;dashed=0;verticalLabelPosition=bottom;verticalAlign=top;align=center;html=1;fontSize=12;fontStyle=0;aspect=fixed;shape=mxgraph.aws4.resourceIcon;resIcon=mxgraph.aws4.ec2;" parent="kPjp37Ba6q5vGIwWxMdt-9" vertex="1">
          <mxGeometry x="470" y="50" width="46" height="46" as="geometry" />
        </mxCell>
        <mxCell id="kPjp37Ba6q5vGIwWxMdt-2" value="AWS Cloud" style="points=[[0,0],[0.25,0],[0.5,0],[0.75,0],[1,0],[1,0.25],[1,0.5],[1,0.75],[1,1],[0.75,1],[0.5,1],[0.25,1],[0,1],[0,0.75],[0,0.5],[0,0.25]];outlineConnect=0;gradientColor=none;html=1;whiteSpace=wrap;fontSize=12;fontStyle=0;container=1;pointerEvents=0;collapsible=0;recursiveResize=0;shape=mxgraph.aws4.group;grIcon=mxgraph.aws4.group_aws_cloud;strokeColor=#232F3E;fillColor=none;verticalAlign=top;align=left;spacingLeft=30;fontColor=#232F3E;dashed=0;" parent="kPjp37Ba6q5vGIwWxMdt-1" vertex="1">
          <mxGeometry x="120" y="230" width="930" height="620" as="geometry" />
        </mxCell>
        <mxCell id="kPjp37Ba6q5vGIwWxMdt-3" value="Region" style="points=[[0,0],[0.25,0],[0.5,0],[0.75,0],[1,0],[1,0.25],[1,0.5],[1,0.75],[1,1],[0.75,1],[0.5,1],[0.25,1],[0,1],[0,0.75],[0,0.5],[0,0.25]];outlineConnect=0;gradientColor=none;html=1;whiteSpace=wrap;fontSize=12;fontStyle=0;container=1;pointerEvents=0;collapsible=0;recursiveResize=0;shape=mxgraph.aws4.group;grIcon=mxgraph.aws4.group_region;strokeColor=#147EBA;fillColor=none;verticalAlign=top;align=left;spacingLeft=30;fontColor=#147EBA;dashed=1;" parent="kPjp37Ba6q5vGIwWxMdt-2" vertex="1">
          <mxGeometry x="10" y="40" width="909" height="570" as="geometry" />
        </mxCell>
        <mxCell id="1U_UcgCnPSTyndIsVM09-28" style="edgeStyle=orthogonalEdgeStyle;curved=1;orthogonalLoop=1;jettySize=auto;html=1;" parent="kPjp37Ba6q5vGIwWxMdt-1" source="kPjp37Ba6q5vGIwWxMdt-20" target="1U_UcgCnPSTyndIsVM09-11" edge="1">
          <mxGeometry relative="1" as="geometry" />
        </mxCell>
        <mxCell id="1U_UcgCnPSTyndIsVM09-29" value="WRITES" style="edgeLabel;html=1;align=center;verticalAlign=middle;resizable=0;points=[];" parent="1U_UcgCnPSTyndIsVM09-28" vertex="1" connectable="0">
          <mxGeometry x="-0.4946" y="25" relative="1" as="geometry">
            <mxPoint as="offset" />
          </mxGeometry>
        </mxCell>
        <mxCell id="1U_UcgCnPSTyndIsVM09-30" style="edgeStyle=orthogonalEdgeStyle;curved=1;orthogonalLoop=1;jettySize=auto;html=1;exitX=0;exitY=0.5;exitDx=0;exitDy=0;" parent="kPjp37Ba6q5vGIwWxMdt-1" source="kPjp37Ba6q5vGIwWxMdt-20" target="1U_UcgCnPSTyndIsVM09-26" edge="1">
          <mxGeometry relative="1" as="geometry" />
        </mxCell>
        <mxCell id="1U_UcgCnPSTyndIsVM09-31" value="READS" style="edgeLabel;html=1;align=center;verticalAlign=middle;resizable=0;points=[];" parent="1U_UcgCnPSTyndIsVM09-30" vertex="1" connectable="0">
          <mxGeometry x="-0.6243" y="-19" relative="1" as="geometry">
            <mxPoint as="offset" />
          </mxGeometry>
        </mxCell>
        <mxCell id="kPjp37Ba6q5vGIwWxMdt-20" value="Applications/ Smart Contract Development Tools" style="rounded=1;whiteSpace=wrap;html=1;" parent="kPjp37Ba6q5vGIwWxMdt-1" vertex="1">
          <mxGeometry x="490" y="910" width="120" height="60" as="geometry" />
        </mxCell>
        <mxCell id="kPjp37Ba6q5vGIwWxMdt-4" value="VPC" style="points=[[0,0],[0.25,0],[0.5,0],[0.75,0],[1,0],[1,0.25],[1,0.5],[1,0.75],[1,1],[0.75,1],[0.5,1],[0.25,1],[0,1],[0,0.75],[0,0.5],[0,0.25]];outlineConnect=0;gradientColor=none;html=1;whiteSpace=wrap;fontSize=12;fontStyle=0;container=1;pointerEvents=0;collapsible=0;recursiveResize=0;shape=mxgraph.aws4.group;grIcon=mxgraph.aws4.group_vpc;strokeColor=#248814;fillColor=none;verticalAlign=top;align=left;spacingLeft=30;fontColor=#AAB7B8;dashed=0;" parent="kPjp37Ba6q5vGIwWxMdt-1" vertex="1">
          <mxGeometry x="140" y="300" width="886" height="530" as="geometry" />
        </mxCell>
        <mxCell id="1U_UcgCnPSTyndIsVM09-22" value="ALB" style="sketch=0;outlineConnect=0;fontColor=#232F3E;gradientColor=none;fillColor=#4D27AA;strokeColor=none;dashed=0;verticalLabelPosition=bottom;verticalAlign=top;align=center;html=1;fontSize=12;fontStyle=1;aspect=fixed;pointerEvents=1;shape=mxgraph.aws4.application_load_balancer;labelPosition=center;" parent="kPjp37Ba6q5vGIwWxMdt-4" vertex="1">
          <mxGeometry x="260" y="282" width="38" height="38" as="geometry" />
        </mxCell>
        <mxCell id="1U_UcgCnPSTyndIsVM09-11" value="Write ALB" style="sketch=0;outlineConnect=0;fontColor=#232F3E;gradientColor=none;fillColor=#4D27AA;strokeColor=none;dashed=0;verticalLabelPosition=bottom;verticalAlign=top;align=center;html=1;fontSize=12;fontStyle=1;aspect=fixed;pointerEvents=1;shape=mxgraph.aws4.application_load_balancer;labelPosition=center;" parent="kPjp37Ba6q5vGIwWxMdt-4" vertex="1">
          <mxGeometry x="751" y="277.5" width="44.5" height="44.5" as="geometry" />
        </mxCell>
        <mxCell id="1U_UcgCnPSTyndIsVM09-26" value="Read ALB" style="sketch=0;outlineConnect=0;fontColor=#232F3E;gradientColor=none;fillColor=#4D27AA;strokeColor=none;dashed=0;verticalLabelPosition=bottom;verticalAlign=top;align=center;html=1;fontSize=12;fontStyle=1;aspect=fixed;pointerEvents=1;shape=mxgraph.aws4.application_load_balancer;labelPosition=center;" parent="kPjp37Ba6q5vGIwWxMdt-4" vertex="1">
          <mxGeometry x="40" y="280.75" width="38" height="38" as="geometry" />
        </mxCell>
        <mxCell id="kPjp37Ba6q5vGIwWxMdt-5" value="Availability Zone" style="fillColor=none;strokeColor=#147EBA;dashed=1;verticalAlign=top;fontStyle=0;fontColor=#147EBA;" parent="kPjp37Ba6q5vGIwWxMdt-1" vertex="1">
          <mxGeometry x="150" y="340" width="861" height="240" as="geometry" />
        </mxCell>
        <mxCell id="kPjp37Ba6q5vGIwWxMdt-6" value="Public subnet" style="points=[[0,0],[0.25,0],[0.5,0],[0.75,0],[1,0],[1,0.25],[1,0.5],[1,0.75],[1,1],[0.75,1],[0.5,1],[0.25,1],[0,1],[0,0.75],[0,0.5],[0,0.25]];outlineConnect=0;gradientColor=none;html=1;whiteSpace=wrap;fontSize=12;fontStyle=0;container=0;pointerEvents=0;collapsible=0;recursiveResize=0;shape=mxgraph.aws4.group;grIcon=mxgraph.aws4.group_security_group;grStroke=0;strokeColor=#248814;fillColor=#E9F3E6;verticalAlign=top;align=left;spacingLeft=30;fontColor=#248814;dashed=0;" parent="kPjp37Ba6q5vGIwWxMdt-1" vertex="1">
          <mxGeometry x="160" y="365" width="831" height="205" as="geometry" />
        </mxCell>
        <mxCell id="kPjp37Ba6q5vGIwWxMdt-8" value="Availability Zone" style="fillColor=none;strokeColor=#147EBA;dashed=1;verticalAlign=top;fontStyle=0;fontColor=#147EBA;" parent="kPjp37Ba6q5vGIwWxMdt-1" vertex="1">
          <mxGeometry x="150" y="620" width="861" height="200" as="geometry" />
        </mxCell>
        <mxCell id="1U_UcgCnPSTyndIsVM09-8" value="RPC Write Node" style="sketch=0;points=[[0,0,0],[0.25,0,0],[0.5,0,0],[0.75,0,0],[1,0,0],[0,1,0],[0.25,1,0],[0.5,1,0],[0.75,1,0],[1,1,0],[0,0.25,0],[0,0.5,0],[0,0.75,0],[1,0.25,0],[1,0.5,0],[1,0.75,0]];outlineConnect=0;fontColor=#232F3E;gradientColor=#F78E04;gradientDirection=north;fillColor=#D05C17;strokeColor=#ffffff;dashed=0;verticalLabelPosition=bottom;verticalAlign=top;align=center;html=1;fontSize=12;fontStyle=0;aspect=fixed;shape=mxgraph.aws4.resourceIcon;resIcon=mxgraph.aws4.ec2;" parent="kPjp37Ba6q5vGIwWxMdt-1" vertex="1">
          <mxGeometry x="755.5" y="470" width="50" height="50" as="geometry" />
        </mxCell>
        <mxCell id="1U_UcgCnPSTyndIsVM09-9" value="RPC Write Node" style="sketch=0;points=[[0,0,0],[0.25,0,0],[0.5,0,0],[0.75,0,0],[1,0,0],[0,1,0],[0.25,1,0],[0.5,1,0],[0.75,1,0],[1,1,0],[0,0.25,0],[0,0.5,0],[0,0.75,0],[1,0.25,0],[1,0.5,0],[1,0.75,0]];outlineConnect=0;fontColor=#232F3E;gradientColor=#F78E04;gradientDirection=north;fillColor=#D05C17;strokeColor=#ffffff;dashed=0;verticalLabelPosition=bottom;verticalAlign=top;align=center;html=1;fontSize=12;fontStyle=0;aspect=fixed;shape=mxgraph.aws4.resourceIcon;resIcon=mxgraph.aws4.ec2;" parent="kPjp37Ba6q5vGIwWxMdt-1" vertex="1">
          <mxGeometry x="755.5" y="680" width="50" height="50" as="geometry" />
        </mxCell>
        <mxCell id="1U_UcgCnPSTyndIsVM09-10" value="Write ASG" style="points=[[0,0],[0.25,0],[0.5,0],[0.75,0],[1,0],[1,0.25],[1,0.5],[1,0.75],[1,1],[0.75,1],[0.5,1],[0.25,1],[0,1],[0,0.75],[0,0.5],[0,0.25]];outlineConnect=0;gradientColor=none;html=1;whiteSpace=wrap;fontSize=12;fontStyle=0;container=0;pointerEvents=0;collapsible=0;recursiveResize=0;shape=mxgraph.aws4.groupCenter;grIcon=mxgraph.aws4.group_auto_scaling_group;grStroke=1;strokeColor=#D86613;fillColor=none;verticalAlign=top;align=center;fontColor=#D86613;dashed=1;spacingTop=25;" parent="kPjp37Ba6q5vGIwWxMdt-1" vertex="1">
          <mxGeometry x="711" y="400" width="139" height="400" as="geometry" />
        </mxCell>
        <mxCell id="1U_UcgCnPSTyndIsVM09-12" style="edgeStyle=orthogonalEdgeStyle;rounded=0;orthogonalLoop=1;jettySize=auto;html=1;" parent="kPjp37Ba6q5vGIwWxMdt-1" source="1U_UcgCnPSTyndIsVM09-11" target="1U_UcgCnPSTyndIsVM09-10" edge="1">
          <mxGeometry relative="1" as="geometry" />
        </mxCell>
        <mxCell id="1U_UcgCnPSTyndIsVM09-13" style="edgeStyle=orthogonalEdgeStyle;orthogonalLoop=1;jettySize=auto;html=1;exitX=0.5;exitY=0;exitDx=0;exitDy=0;exitPerimeter=0;entryX=0;entryY=0.5;entryDx=0;entryDy=0;curved=1;" parent="kPjp37Ba6q5vGIwWxMdt-1" source="kPjp37Ba6q5vGIwWxMdt-10" target="1U_UcgCnPSTyndIsVM09-10" edge="1">
          <mxGeometry relative="1" as="geometry" />
        </mxCell>
        <mxCell id="kPjp37Ba6q5vGIwWxMdt-12" value="Read ASG" style="points=[[0,0],[0.25,0],[0.5,0],[0.75,0],[1,0],[1,0.25],[1,0.5],[1,0.75],[1,1],[0.75,1],[0.5,1],[0.25,1],[0,1],[0,0.75],[0,0.5],[0,0.25]];outlineConnect=0;gradientColor=none;html=1;whiteSpace=wrap;fontSize=12;fontStyle=0;container=0;pointerEvents=0;collapsible=0;recursiveResize=0;shape=mxgraph.aws4.groupCenter;grIcon=mxgraph.aws4.group_auto_scaling_group;grStroke=1;strokeColor=#D86613;fillColor=none;verticalAlign=top;align=center;fontColor=#D86613;dashed=1;spacingTop=25;" parent="kPjp37Ba6q5vGIwWxMdt-1" vertex="1">
          <mxGeometry x="460" y="400" width="130" height="400" as="geometry" />
        </mxCell>
        <mxCell id="kPjp37Ba6q5vGIwWxMdt-16" style="edgeStyle=orthogonalEdgeStyle;curved=1;rounded=0;orthogonalLoop=1;jettySize=auto;html=1;entryX=1;entryY=0.5;entryDx=0;entryDy=0;fontSize=18;fontColor=#FFFFFF;exitX=0.5;exitY=0;exitDx=0;exitDy=0;exitPerimeter=0;" parent="kPjp37Ba6q5vGIwWxMdt-1" source="kPjp37Ba6q5vGIwWxMdt-10" target="kPjp37Ba6q5vGIwWxMdt-12" edge="1">
          <mxGeometry relative="1" as="geometry">
            <mxPoint x="665.5" y="700" as="sourcePoint" />
          </mxGeometry>
        </mxCell>
        <mxCell id="kPjp37Ba6q5vGIwWxMdt-7" value="RPC Read Node" style="sketch=0;points=[[0,0,0],[0.25,0,0],[0.5,0,0],[0.75,0,0],[1,0,0],[0,1,0],[0.25,1,0],[0.5,1,0],[0.75,1,0],[1,1,0],[0,0.25,0],[0,0.5,0],[0,0.75,0],[1,0.25,0],[1,0.5,0],[1,0.75,0]];outlineConnect=0;fontColor=#232F3E;gradientColor=#F78E04;gradientDirection=north;fillColor=#D05C17;strokeColor=#ffffff;dashed=0;verticalLabelPosition=bottom;verticalAlign=top;align=center;html=1;fontSize=12;fontStyle=0;aspect=fixed;shape=mxgraph.aws4.resourceIcon;resIcon=mxgraph.aws4.ec2;" parent="kPjp37Ba6q5vGIwWxMdt-1" vertex="1">
          <mxGeometry x="500" y="470" width="50" height="50" as="geometry" />
        </mxCell>
        <mxCell id="kPjp37Ba6q5vGIwWxMdt-11" value="RPC Read Node" style="sketch=0;points=[[0,0,0],[0.25,0,0],[0.5,0,0],[0.75,0,0],[1,0,0],[0,1,0],[0.25,1,0],[0.5,1,0],[0.75,1,0],[1,1,0],[0,0.25,0],[0,0.5,0],[0,0.75,0],[1,0.25,0],[1,0.5,0],[1,0.75,0]];outlineConnect=0;fontColor=#232F3E;gradientColor=#F78E04;gradientDirection=north;fillColor=#D05C17;strokeColor=#ffffff;dashed=0;verticalLabelPosition=bottom;verticalAlign=top;align=center;html=1;fontSize=12;fontStyle=0;aspect=fixed;shape=mxgraph.aws4.resourceIcon;resIcon=mxgraph.aws4.ec2;" parent="kPjp37Ba6q5vGIwWxMdt-1" vertex="1">
          <mxGeometry x="500" y="680" width="50" height="50" as="geometry" />
        </mxCell>
        <mxCell id="1U_UcgCnPSTyndIsVM09-25" style="edgeStyle=orthogonalEdgeStyle;curved=1;orthogonalLoop=1;jettySize=auto;html=1;exitX=1;exitY=0.5;exitDx=0;exitDy=0;" parent="kPjp37Ba6q5vGIwWxMdt-1" source="1U_UcgCnPSTyndIsVM09-15" target="1U_UcgCnPSTyndIsVM09-22" edge="1">
          <mxGeometry relative="1" as="geometry">
            <Array as="points">
              <mxPoint x="410" y="601" />
              <mxPoint x="410" y="601" />
            </Array>
          </mxGeometry>
        </mxCell>
        <mxCell id="1U_UcgCnPSTyndIsVM09-15" value="Cache ASG" style="points=[[0,0],[0.25,0],[0.5,0],[0.75,0],[1,0],[1,0.25],[1,0.5],[1,0.75],[1,1],[0.75,1],[0.5,1],[0.25,1],[0,1],[0,0.75],[0,0.5],[0,0.25]];outlineConnect=0;gradientColor=none;html=1;whiteSpace=wrap;fontSize=12;fontStyle=0;container=0;pointerEvents=0;collapsible=0;recursiveResize=0;shape=mxgraph.aws4.groupCenter;grIcon=mxgraph.aws4.group_auto_scaling_group;grStroke=1;strokeColor=#D86613;fillColor=none;verticalAlign=top;align=center;fontColor=#D86613;dashed=1;spacingTop=25;" parent="kPjp37Ba6q5vGIwWxMdt-1" vertex="1">
          <mxGeometry x="250" y="400" width="130" height="400" as="geometry" />
        </mxCell>
        <mxCell id="1U_UcgCnPSTyndIsVM09-16" value="Cache" style="sketch=0;points=[[0,0,0],[0.25,0,0],[0.5,0,0],[0.75,0,0],[1,0,0],[0,1,0],[0.25,1,0],[0.5,1,0],[0.75,1,0],[1,1,0],[0,0.25,0],[0,0.5,0],[0,0.75,0],[1,0.25,0],[1,0.5,0],[1,0.75,0]];outlineConnect=0;fontColor=#232F3E;gradientColor=#F78E04;gradientDirection=north;fillColor=#D05C17;strokeColor=#ffffff;dashed=0;verticalLabelPosition=bottom;verticalAlign=top;align=center;html=1;fontSize=12;fontStyle=0;aspect=fixed;shape=mxgraph.aws4.resourceIcon;resIcon=mxgraph.aws4.ec2;" parent="kPjp37Ba6q5vGIwWxMdt-1" vertex="1">
          <mxGeometry x="290" y="470" width="50" height="50" as="geometry" />
        </mxCell>
        <mxCell id="1U_UcgCnPSTyndIsVM09-17" value="Cache" style="sketch=0;points=[[0,0,0],[0.25,0,0],[0.5,0,0],[0.75,0,0],[1,0,0],[0,1,0],[0.25,1,0],[0.5,1,0],[0.75,1,0],[1,1,0],[0,0.25,0],[0,0.5,0],[0,0.75,0],[1,0.25,0],[1,0.5,0],[1,0.75,0]];outlineConnect=0;fontColor=#232F3E;gradientColor=#F78E04;gradientDirection=north;fillColor=#D05C17;strokeColor=#ffffff;dashed=0;verticalLabelPosition=bottom;verticalAlign=top;align=center;html=1;fontSize=12;fontStyle=0;aspect=fixed;shape=mxgraph.aws4.resourceIcon;resIcon=mxgraph.aws4.ec2;" parent="kPjp37Ba6q5vGIwWxMdt-1" vertex="1">
          <mxGeometry x="290" y="690" width="50" height="50" as="geometry" />
        </mxCell>
        <mxCell id="1U_UcgCnPSTyndIsVM09-18" value="" style="endArrow=classic;html=1;curved=1;" parent="kPjp37Ba6q5vGIwWxMdt-1" edge="1">
          <mxGeometry relative="1" as="geometry">
            <mxPoint x="540" y="560" as="sourcePoint" />
            <mxPoint x="640" y="560" as="targetPoint" />
          </mxGeometry>
        </mxCell>
        <mxCell id="1U_UcgCnPSTyndIsVM09-19" value="Label" style="edgeLabel;resizable=0;html=1;align=center;verticalAlign=middle;" parent="1U_UcgCnPSTyndIsVM09-18" connectable="0" vertex="1">
          <mxGeometry relative="1" as="geometry" />
        </mxCell>
        <mxCell id="1U_UcgCnPSTyndIsVM09-20" value="" style="endArrow=classic;html=1;curved=1;" parent="kPjp37Ba6q5vGIwWxMdt-1" edge="1">
          <mxGeometry relative="1" as="geometry">
            <mxPoint x="540" y="560" as="sourcePoint" />
            <mxPoint x="640" y="560" as="targetPoint" />
          </mxGeometry>
        </mxCell>
        <mxCell id="1U_UcgCnPSTyndIsVM09-21" value="Label" style="edgeLabel;resizable=0;html=1;align=center;verticalAlign=middle;" parent="1U_UcgCnPSTyndIsVM09-20" connectable="0" vertex="1">
          <mxGeometry relative="1" as="geometry" />
        </mxCell>
        <mxCell id="1U_UcgCnPSTyndIsVM09-24" style="edgeStyle=orthogonalEdgeStyle;curved=1;orthogonalLoop=1;jettySize=auto;html=1;entryX=0;entryY=0.5;entryDx=0;entryDy=0;" parent="kPjp37Ba6q5vGIwWxMdt-1" source="1U_UcgCnPSTyndIsVM09-22" target="kPjp37Ba6q5vGIwWxMdt-12" edge="1">
          <mxGeometry relative="1" as="geometry" />
        </mxCell>
        <mxCell id="1U_UcgCnPSTyndIsVM09-27" style="edgeStyle=orthogonalEdgeStyle;curved=1;orthogonalLoop=1;jettySize=auto;html=1;entryX=0;entryY=0.5;entryDx=0;entryDy=0;" parent="kPjp37Ba6q5vGIwWxMdt-1" source="1U_UcgCnPSTyndIsVM09-26" target="1U_UcgCnPSTyndIsVM09-15" edge="1">
          <mxGeometry relative="1" as="geometry" />
        </mxCell>
      </root>
    </mxGraphModel>
  </diagram>
</mxfile>
